<svg version="1.1" xmlns="http://www.w3.org/2000/svg" width="700" height="700" xmlns:xlink="http://www.w3.org/1999/xlink">
  <style>
    path { fill: black; }
    @media (prefers-color-scheme: dark) {
      path { fill: white; }
    }
  </style>
  <path d="m280.3 7.4648 335.21 25.895c10.555 0.76562 18.566 9.5977 18.566 19.988h0.027344v173.5c0 11.102-8.9961 20.07-20.07 20.07-0.84766 0-1.7227-0.054687-2.5703-0.16406l-258.1-19.961v322.14c0 39.703-16.078 75.605-42.109 101.61-26.004 26.031-61.934 42.109-101.61 42.109-39.703 0-75.637-16.078-101.61-42.109-26.031-26.031-42.109-61.934-42.109-101.61 0-39.703 16.078-75.637 42.109-101.61 26.004-26.031 61.934-42.109 101.61-42.109 14.301 0 28.164 2.1328 41.316 6.0703 2.2695 0.68359 4.5117 1.3945 6.7266 2.2148v-386.12c0-11.102 8.9961-20.07 20.07-20.07 0.84766 0 1.7227 0.054688 2.5703 0.16406z" 
    transform="scale(-1, 1) translate(-700, 0)"></path>
</svg>
